PathFileType	4	(X/Y/Z)	D:\TRACE\spot_10-12-23\spot_arm_body_motion_2_1-platform.trc
DataRate	CameraRate	NumFrames	NumMarkers	Units	OrigDataRate	OrigDataStartFrame	OrigNumFrames
100.00	100.00	      61	5	mm	100.00	1	      7000
Frame#	Time	Left_Front			Right_Front			Left_Aft			Right_Aft			Post			
		X1	Y1	Z1	X2	Y2	Z2	X3	Y3	Z3	X4	Y4	Z4	X5	Y5	Z5	

1	0.000	-762.04456	53.27733	-639.99945	805.50745	50.83173	-615.60736	-692.95007	-16.88502	496.35330	713.93481	-23.92961	598.24707	25.44996	799.81299	-904.22815	
2	0.010	-762.04962	53.25066	-639.98755	805.46399	50.82480	-615.64105	-692.94025	-16.88221	496.39050	713.96851	-23.92081	598.28247	25.46552	799.83875	-904.25830	
3	0.020	-762.05115	53.27735	-639.96881	805.50171	50.82575	-615.62054	-692.94122	-16.87000	496.37091	713.93774	-23.91752	598.27008	25.42801	799.82770	-904.20190	
4	0.030	-762.03748	53.27095	-639.97968	805.50214	50.83200	-615.58929	-692.91821	-16.92341	496.34735	713.97131	-23.92829	598.27411	25.48239	799.85522	-904.19678	
5	0.040	-762.01086	53.25133	-639.99658	805.51880	50.82448	-615.60229	-692.92987	-16.89034	496.34067	713.91785	-23.91706	598.28748	25.45794	799.85364	-904.23999	
6	0.050	-762.03503	53.25625	-639.98828	805.49225	50.83727	-615.61560	-692.92230	-16.93013	496.36945	713.94690	-23.93328	598.26721	25.43706	799.84296	-904.22522	
7	0.060	-762.02094	53.23638	-640.00415	805.50989	50.84627	-615.60742	-692.92303	-16.89122	496.34860	713.99341	-23.93571	598.26672	25.46240	799.80811	-904.19092	
8	0.070	-762.03467	53.24784	-639.98468	805.47937	50.83030	-615.61407	-692.94965	-16.89383	496.35043	713.98730	-23.92645	598.23376	25.43362	799.80859	-904.22791	
9	0.080	-762.05731	53.27451	-640.02423	805.49133	50.82684	-615.62976	-692.92572	-16.84938	496.36798	713.97260	-23.89133	598.28070	25.44035	799.82794	-904.24536	
10	0.090	-762.04242	53.25926	-639.99280	805.49902	50.85101	-615.59113	-692.92126	-16.89681	496.36887	714.00360	-23.92882	598.27417	25.44583	799.84198	-904.29193	
11	0.100	-762.02692	53.26900	-639.99500	805.50031	50.84716	-615.60632	-692.92462	-16.89882	496.36169	713.96771	-23.92579	598.23883	25.47692	799.81384	-904.30322	
12	0.110	-762.00775	53.26148	-639.99957	805.52002	50.86097	-615.60461	-692.92194	-16.90099	496.36426	714.00763	-23.91436	598.27112	25.48686	799.85455	-904.31738	
13	0.120	-762.02734	53.26314	-639.99823	805.49994	50.84344	-615.59265	-692.92261	-16.90597	496.37161	713.94257	-23.92737	598.30487	25.43229	799.85577	-904.31842	
14	0.130	-762.04803	53.28251	-639.98517	805.51581	50.84704	-615.60388	-692.94543	-16.92278	496.37698	713.96417	-23.93569	598.29553	25.45397	799.82159	-904.26251	
15	0.140	-762.05371	53.28249	-639.98077	805.51617	50.85450	-615.60522	-692.97809	-16.89054	496.35709	713.97406	-23.92990	598.29883	25.43511	799.87457	-904.26733	
16	0.150	-762.03607	53.31020	-639.98340	805.50598	50.89637	-615.62164	-692.90564	-16.86267	496.37476	713.94629	-23.88468	598.30347	25.46181	799.85229	-904.25934	
17	0.160	-762.04181	53.40187	-639.98590	805.48346	50.91172	-615.62195	-692.95544	-16.89841	496.33075	713.97565	-23.91392	598.31018	25.46816	799.90997	-904.23615	
18	0.170	-762.00623	53.35239	-639.98773	805.54688	50.84925	-615.57745	-692.91144	-16.92054	496.35617	714.01367	-23.94943	598.29248	25.50587	799.95654	-904.22913	
19	0.180	-762.02203	53.25856	-639.98468	805.50232	50.85600	-615.60895	-692.94153	-16.90298	496.37299	714.02997	-23.91515	598.28320	25.40664	799.90594	-904.17389	
20	0.190	-762.02448	53.26328	-639.97577	805.51862	50.85953	-615.61481	-692.89398	-16.95253	496.39487	714.03253	-23.92610	598.30170	25.44637	799.84625	-904.15320	
21	0.200	-762.01038	53.29393	-639.98175	805.48853	50.85535	-615.64539	-692.95270	-16.91483	496.38141	713.95221	-23.92026	598.32227	25.43366	799.83276	-904.09906	
22	0.210	-762.04297	53.29725	-639.98633	805.51965	50.80589	-615.62866	-692.93744	-16.85462	496.33432	714.00177	-23.88970	598.28082	25.48426	799.80939	-904.15271	
23	0.220	-762.03894	53.30142	-640.00311	805.51416	50.83632	-615.60168	-692.95209	-16.85569	496.34766	713.96600	-23.86029	598.25909	25.50269	799.80988	-904.16785	
24	0.230	-762.04675	53.30362	-640.00732	805.49738	50.85596	-615.61591	-692.91589	-16.90085	496.32764	713.97021	-23.86193	598.29138	25.48874	799.81366	-904.23303	
25	0.240	-762.06049	53.26227	-639.98254	805.46820	50.83471	-615.63434	-692.93127	-16.91329	496.32544	713.96759	-23.90471	598.27789	25.44568	799.83289	-904.27771	
26	0.250	-762.02100	53.27010	-639.97449	805.53204	50.81979	-615.62622	-692.90497	-16.91177	496.35541	713.99445	-23.94225	598.24445	25.46071	799.83917	-904.31683	
27	0.260	-762.04517	53.25976	-639.97833	805.53857	50.84700	-615.57410	-692.91278	-16.92684	496.35046	713.99451	-23.94323	598.28955	25.43342	799.86316	-904.30707	
28	0.270	-762.01587	53.29793	-640.01678	805.53741	50.89187	-615.58643	-692.89166	-16.89775	496.36285	714.07813	-23.87168	598.26019	25.50111	799.90564	-904.34369	
29	0.280	-762.00635	53.32096	-640.00018	805.51050	50.88046	-615.59259	-692.88641	-16.90458	496.35956	714.03119	-23.89779	598.27826	25.46838	799.91724	-904.34766	
30	0.290	-762.04004	53.31570	-640.00250	805.50256	50.82828	-615.64014	-692.95764	-16.90687	496.32635	713.95294	-23.89960	598.29657	25.46008	799.85883	-904.32922	
31	0.300	-762.05164	53.24340	-640.01477	805.49475	50.81569	-615.64844	-692.93640	-16.90963	496.36221	713.99506	-23.92060	598.27625	25.43641	799.82410	-904.29382	
32	0.310	-762.05731	53.22483	-640.00134	805.51044	50.82914	-615.61938	-692.94318	-16.88929	496.35623	713.99652	-23.88206	598.26556	25.44838	799.80157	-904.24329	
33	0.320	-762.03656	53.26728	-640.01801	805.50189	50.83259	-615.59332	-692.93292	-16.88599	496.35559	714.02246	-23.88749	598.23578	25.47807	799.83112	-904.22614	
34	0.330	-762.01764	53.31061	-640.02087	805.50464	50.83359	-615.61249	-692.93536	-16.88919	496.36292	714.05945	-23.86629	598.27057	25.48468	799.81628	-904.18866	
35	0.340	-762.02325	53.29131	-640.01202	805.50464	50.85087	-615.64008	-692.91644	-16.88952	496.34164	714.03577	-23.88917	598.26715	25.50598	799.82623	-904.18146	
36	0.350	-762.02747	53.27709	-639.98108	805.49329	50.82087	-615.64612	-692.92401	-16.91511	496.37433	713.96564	-23.94846	598.28387	25.46304	799.81146	-904.15265	
37	0.360	-762.00964	53.24244	-639.99731	805.52551	50.81017	-615.59058	-692.93689	-16.92796	496.35831	713.97968	-23.92733	598.29932	25.44955	799.85974	-904.17004	
38	0.370	-762.02563	53.26086	-639.98267	805.53394	50.85274	-615.58588	-692.93683	-16.91438	496.35699	713.98566	-23.90420	598.29559	25.44118	799.87036	-904.21063	
39	0.380	-762.03064	53.33051	-639.98584	805.51501	50.87619	-615.57715	-692.92133	-16.88013	496.35159	713.84100	-24.12179	597.93274	25.49606	799.89679	-904.25293	
40	0.390	-762.05066	53.33855	-639.99860	805.48602	50.86669	-615.60437	-692.94824	-16.88252	496.33017	713.99811	-23.87406	598.24762	25.45310	799.85181	-904.28802	
41	0.400	-762.03503	53.26788	-640.02344	805.48627	50.83686	-615.64313	-692.97614	-16.88270	496.35031	713.94403	-23.91819	598.23950	25.46768	799.79407	-904.27258	
42	0.410	-762.00903	53.19706	-640.01752	805.51880	50.77361	-615.62347	-692.91235	-16.91619	496.35684	713.97522	-23.92409	598.26813	25.47662	799.77008	-904.28741	
43	0.420	-762.00739	53.20101	-640.01233	805.53888	50.81404	-615.59351	-692.89063	-16.91839	496.35193	713.94000	-23.91572	598.28168	25.44441	799.78937	-904.30109	
44	0.430	-762.01337	53.27861	-640.03735	805.52014	50.86750	-615.58942	-692.90161	-16.89157	496.33804	713.99963	-23.86782	598.27728	25.48767	799.85791	-904.31702	
45	0.440	-762.02466	53.31354	-640.00928	805.49963	50.88255	-615.61798	-692.94556	-16.86101	496.33041	713.96967	-23.86726	598.26056	25.50177	799.85583	-904.32898	
46	0.450	-762.04498	53.34341	-639.97437	805.50281	50.85315	-615.58929	-692.96027	-16.88817	496.35666	714.00983	-23.89668	598.32324	25.43765	799.85815	-904.32349	
47	0.460	-762.02753	53.25271	-639.98181	805.49963	50.83228	-615.63141	-692.97888	-16.93358	496.38550	713.94482	-23.96200	598.28955	25.44457	799.83722	-904.27594	
48	0.470	-762.00922	53.24899	-639.99634	805.53687	50.82843	-615.60443	-692.91003	-16.95150	496.36038	714.00818	-23.91995	598.31378	25.48841	799.82764	-904.26355	
49	0.480	-762.00586	53.24521	-639.98395	805.52966	50.83675	-615.61487	-692.90436	-16.93379	496.40689	713.97644	-23.88097	598.34637	25.44423	799.83185	-904.21143	
50	0.490	-762.01514	53.26110	-639.97601	805.51947	50.83832	-615.61292	-692.89307	-16.88857	496.34424	714.03607	-23.86055	598.25970	25.50383	799.84271	-904.20776	
51	0.500	-762.01379	53.23879	-639.99792	805.51019	50.84315	-615.61151	-692.93317	-16.88128	496.35825	714.01440	-23.90031	598.26898	25.47528	799.81598	-904.18329	
52	0.510	-762.02478	53.24018	-639.99329	805.51050	50.79729	-615.64044	-692.94019	-16.91712	496.35831	714.03290	-23.90099	598.29657	25.46465	799.76691	-904.19226	
53	0.520	-762.03064	53.23758	-640.01215	805.50061	50.79826	-615.65363	-692.94714	-16.90388	496.34735	713.99664	-23.91901	598.27594	25.44756	799.77319	-904.19250	
54	0.530	-762.01538	53.22709	-639.98950	805.52008	50.81131	-615.63025	-692.92865	-16.92656	496.34589	713.96545	-23.89565	598.27850	25.45645	799.80341	-904.23926	
55	0.540	-762.03802	53.29478	-639.99310	805.52197	50.83469	-615.61633	-692.95007	-16.90743	496.37119	713.93353	-23.87556	598.28308	25.46548	799.85529	-904.27014	
56	0.550	-762.00739	53.31099	-639.98053	805.49500	50.85832	-615.60382	-692.89941	-16.86838	496.35638	714.05359	-23.85403	598.30872	25.45303	799.89227	-904.28497	
57	0.560	-762.05383	53.27502	-639.98944	805.52502	50.84514	-615.59326	-692.93860	-16.90554	496.35208	714.00995	-23.92656	598.28052	25.43532	799.85901	-904.32880	
58	0.570	-762.02637	53.25278	-639.98639	805.50909	50.82001	-615.60846	-692.91998	-16.90550	496.35071	714.00403	-23.94853	598.27826	25.44217	799.82068	-904.32196	
59	0.580	-762.02948	53.25184	-639.98334	805.53210	50.83235	-615.61188	-692.90039	-16.92225	496.33893	713.96082	-23.91602	598.26636	25.45671	799.84088	-904.34039	
60	0.590	-762.01520	53.26028	-639.98114	805.50092	50.81832	-615.61572	-692.92322	-16.89248	496.34363	714.00629	-23.89564	598.26630	25.45499	799.84717	-904.31836	
61	0.600	-762.02814	53.27267	-639.98950	805.53156	50.84121	-615.60425	-692.90851	-16.88105	496.34680	713.88367	-24.06330	597.91925	25.49959	799.84784	-904.29095	
